<?xml version="1.0" standalone="no"?>
<!DOCTYPE svg PUBLIC "-//W3C//DTD SVG 20010904//EN"
 "http://www.w3.org/TR/2001/REC-SVG-20010904/DTD/svg10.dtd">
<svg version="1.0" xmlns="http://www.w3.org/2000/svg"
 width="50px" height="50px" viewBox="0 0 512.000000 512.000000"
 preserveAspectRatio="xMidYMid meet">

<g transform="translate(0.000000,512.000000) scale(0.100000,-0.100000)"
fill="#596672" stroke="none">
<path d="M2247 5026 c-94 -26 -177 -111 -221 -226 -43 -108 -27 -280 35 -390
21 -36 105 -129 248 -272 198 -200 219 -218 251 -218 31 0 52 18 238 203 112
111 221 228 243 261 177 264 34 651 -240 650 -78 0 -139 -24 -200 -79 l-41
-37 -41 37 c-78 70 -181 97 -272 71z m203 -230 c104 -102 114 -102 220 -1 107
102 151 109 221 35 50 -52 73 -124 66 -206 -8 -107 -36 -149 -227 -339 l-170
-170 -170 170 c-191 190 -219 232 -227 339 -7 77 13 145 59 200 38 46 61 57
111 52 32 -4 52 -17 117 -80z"/>
<path d="M4185 4295 c-24 -23 -25 -31 -25 -135 0 -104 1 -112 25 -135 15 -16
36 -25 55 -25 19 0 40 9 55 25 24 23 25 31 25 135 0 104 -1 112 -25 135 -15
16 -36 25 -55 25 -19 0 -40 -9 -55 -25z"/>
<path d="M3865 3975 c-16 -15 -25 -36 -25 -55 0 -19 9 -40 25 -55 23 -24 31
-25 135 -25 104 0 112 1 135 25 16 15 25 36 25 55 0 19 -9 40 -25 55 -23 24
-31 25 -135 25 -104 0 -112 -1 -135 -25z"/>
<path d="M4345 3975 c-16 -15 -25 -36 -25 -55 0 -19 9 -40 25 -55 23 -24 31
-25 135 -25 104 0 112 1 135 25 16 15 25 36 25 55 0 19 -9 40 -25 55 -23 24
-31 25 -135 25 -104 0 -112 -1 -135 -25z"/>
<path d="M745 3815 c-24 -23 -25 -31 -25 -135 0 -104 1 -112 25 -135 15 -16
36 -25 55 -25 19 0 40 9 55 25 24 23 25 31 25 135 0 104 -1 112 -25 135 -15
16 -36 25 -55 25 -19 0 -40 -9 -55 -25z"/>
<path d="M4185 3815 c-24 -23 -25 -31 -25 -135 0 -104 1 -112 25 -135 15 -16
36 -25 55 -25 19 0 40 9 55 25 24 23 25 31 25 135 0 104 -1 112 -25 135 -15
16 -36 25 -55 25 -19 0 -40 -9 -55 -25z"/>
<path d="M425 3495 c-16 -15 -25 -36 -25 -55 0 -19 9 -40 25 -55 23 -24 31
-25 135 -25 104 0 112 1 135 25 16 15 25 36 25 55 0 19 -9 40 -25 55 -23 24
-31 25 -135 25 -104 0 -112 -1 -135 -25z"/>
<path d="M905 3495 c-16 -15 -25 -36 -25 -55 0 -19 9 -40 25 -55 23 -24 31
-25 135 -25 104 0 112 1 135 25 16 15 25 36 25 55 0 19 -9 40 -25 55 -23 24
-31 25 -135 25 -104 0 -112 -1 -135 -25z"/>
<path d="M2485 3511 c-131 -34 -226 -143 -243 -279 l-7 -56 -95 -17 c-341 -60
-675 -206 -967 -422 -137 -102 -368 -332 -465 -463 -191 -259 -323 -536 -397
-834 -46 -185 -61 -303 -68 -522 l-6 -198 -54 0 c-44 0 -58 -5 -78 -25 l-25
-24 0 -271 0 -271 25 -24 24 -25 2431 0 2431 0 24 25 25 24 0 271 0 271 -25
24 c-20 20 -34 25 -78 25 l-54 0 -6 198 c-7 219 -22 337 -68 522 -75 304 -220
603 -411 852 -90 116 -267 299 -373 385 -306 247 -692 424 -1060 486 l-79 13
-11 65 c-27 160 -139 265 -294 274 -36 2 -79 1 -96 -4z m163 -178 c38 -29 62
-64 68 -103 l6 -35 -161 0 c-144 0 -161 2 -161 17 0 49 43 111 95 134 40 19
119 12 153 -13z m236 -318 c904 -141 1617 -824 1795 -1720 27 -134 41 -292 41
-447 l0 -128 -2160 0 -2160 0 0 128 c0 604 220 1144 634 1557 370 369 807 572
1351 629 81 8 403 -3 499 -19z m1996 -2615 l0 -160 -2320 0 -2320 0 0 160 0
160 2320 0 2320 0 0 -160z"/>
<path d="M3705 2455 c-41 -40 -34 -80 22 -129 276 -240 454 -487 563 -786 62
-167 110 -423 110 -581 0 -61 3 -73 25 -94 33 -34 78 -33 112 1 26 26 26 26
20 148 -30 570 -287 1074 -735 1439 -42 34 -85 35 -117 2z"/>
<path d="M745 3335 c-24 -23 -25 -31 -25 -135 0 -104 1 -112 25 -135 15 -16
36 -25 55 -25 19 0 40 9 55 25 24 23 25 31 25 135 0 104 -1 112 -25 135 -15
16 -36 25 -55 25 -19 0 -40 -9 -55 -25z"/>
</g>
</svg>
